# xmcd
#
# Track frame offsets:
#	150
#	21157
#	36530
#	57190
#	78115
#	93445
#	112007
#	131352
#	149022
#	164000
#	183085
#
# Disc length: 2472 seconds
#
# Revision: 1
# Processed by: cddbd v1.4PL0 Copyright (c) Steve Scherf et al.
# Submitted via: audiograbber 1.82.02
#
DISCID=9509a60b
DTITLE=Ferdi Tayfur - Durun Ayaklarým
DYEAR=2003
DGENRE=pop
TTITLE0=Evde Yoktun
TTITLE1=Durun Ayaklarým
TTITLE2=Bir Çay Ýçimlik
TTITLE3=Bu Bana Yeter
TTITLE4=Bu Aleme Geldim
TTITLE5=Ah Akþamlar
TTITLE6=Of Anam Of
TTITLE7=Geçer Güzelim
TTITLE8=Neden Olmasýn
TTITLE9=Ýnadý Birak
TTITLE10=xx
EXTD=metin@metin.nom.tr
EXTT0=
EXTT1=
EXTT2=
EXTT3=
EXTT4=
EXTT5=
EXTT6=
EXTT7=
EXTT8=
EXTT9=
EXTT10=
PLAYORDER=
